<mxfile host="app.diagrams.net" modified="2022-09-24T17:04:21.709Z" agent="5.0 (Windows NT 10.0; Win64; x64) AppleWebKit/537.36 (KHTML, like Gecko) Chrome/105.0.0.0 Safari/537.36 Edg/105.0.1343.50" etag="S4Gm00JK5mlcU7e-NEHg" version="20.3.6" type="github">
  <diagram id="s7Xz2odFUMfGfbE8uY4j" name="Page-1">
    <mxGraphModel dx="992" dy="571" grid="1" gridSize="10" guides="1" tooltips="1" connect="1" arrows="1" fold="1" page="1" pageScale="1" pageWidth="850" pageHeight="1100" math="0" shadow="0">
      <root>
        <mxCell id="0" />
        <mxCell id="1" parent="0" />
        <mxCell id="Xq5Ln2yqi9SQ3TSdmt1F-11" value="" style="verticalLabelPosition=bottom;verticalAlign=top;html=1;shape=mxgraph.basic.rect;fillColor2=none;strokeWidth=1;size=20;indent=5;" vertex="1" parent="1">
          <mxGeometry x="320" y="100" width="160" height="340" as="geometry" />
        </mxCell>
        <mxCell id="Xq5Ln2yqi9SQ3TSdmt1F-2" value="Verify Identity&amp;nbsp;" style="ellipse;whiteSpace=wrap;html=1;" vertex="1" parent="1">
          <mxGeometry x="350" y="120" width="100" height="60" as="geometry" />
        </mxCell>
        <mxCell id="Xq5Ln2yqi9SQ3TSdmt1F-3" value="Edit Slot Record" style="ellipse;whiteSpace=wrap;html=1;" vertex="1" parent="1">
          <mxGeometry x="350" y="200" width="100" height="60" as="geometry" />
        </mxCell>
        <mxCell id="Xq5Ln2yqi9SQ3TSdmt1F-4" value="Entry Record" style="ellipse;whiteSpace=wrap;html=1;" vertex="1" parent="1">
          <mxGeometry x="350" y="280" width="100" height="60" as="geometry" />
        </mxCell>
        <mxCell id="Xq5Ln2yqi9SQ3TSdmt1F-5" value="Exit&amp;nbsp; Record" style="ellipse;whiteSpace=wrap;html=1;" vertex="1" parent="1">
          <mxGeometry x="350" y="360" width="100" height="60" as="geometry" />
        </mxCell>
        <mxCell id="Xq5Ln2yqi9SQ3TSdmt1F-6" value="Staff Worker" style="shape=umlActor;verticalLabelPosition=bottom;verticalAlign=top;html=1;outlineConnect=0;" vertex="1" parent="1">
          <mxGeometry x="140" y="250" width="30" height="60" as="geometry" />
        </mxCell>
        <mxCell id="Xq5Ln2yqi9SQ3TSdmt1F-7" value="" style="endArrow=none;html=1;rounded=0;entryX=0;entryY=0.5;entryDx=0;entryDy=0;exitX=0.5;exitY=0.5;exitDx=0;exitDy=0;exitPerimeter=0;" edge="1" parent="1" source="Xq5Ln2yqi9SQ3TSdmt1F-6" target="Xq5Ln2yqi9SQ3TSdmt1F-2">
          <mxGeometry width="50" height="50" relative="1" as="geometry">
            <mxPoint x="400" y="320" as="sourcePoint" />
            <mxPoint x="450" y="270" as="targetPoint" />
          </mxGeometry>
        </mxCell>
        <mxCell id="Xq5Ln2yqi9SQ3TSdmt1F-8" value="" style="endArrow=none;html=1;rounded=0;entryX=0;entryY=0.5;entryDx=0;entryDy=0;exitX=0.5;exitY=0.5;exitDx=0;exitDy=0;exitPerimeter=0;" edge="1" parent="1" source="Xq5Ln2yqi9SQ3TSdmt1F-6" target="Xq5Ln2yqi9SQ3TSdmt1F-3">
          <mxGeometry width="50" height="50" relative="1" as="geometry">
            <mxPoint x="400" y="320" as="sourcePoint" />
            <mxPoint x="450" y="270" as="targetPoint" />
          </mxGeometry>
        </mxCell>
        <mxCell id="Xq5Ln2yqi9SQ3TSdmt1F-9" value="" style="endArrow=none;html=1;rounded=0;entryX=0;entryY=0.5;entryDx=0;entryDy=0;exitX=0.5;exitY=0.5;exitDx=0;exitDy=0;exitPerimeter=0;" edge="1" parent="1" source="Xq5Ln2yqi9SQ3TSdmt1F-6" target="Xq5Ln2yqi9SQ3TSdmt1F-4">
          <mxGeometry width="50" height="50" relative="1" as="geometry">
            <mxPoint x="400" y="320" as="sourcePoint" />
            <mxPoint x="450" y="270" as="targetPoint" />
          </mxGeometry>
        </mxCell>
        <mxCell id="Xq5Ln2yqi9SQ3TSdmt1F-10" value="" style="endArrow=none;html=1;rounded=0;entryX=0.5;entryY=0.5;entryDx=0;entryDy=0;entryPerimeter=0;exitX=0;exitY=0.5;exitDx=0;exitDy=0;" edge="1" parent="1" source="Xq5Ln2yqi9SQ3TSdmt1F-5" target="Xq5Ln2yqi9SQ3TSdmt1F-6">
          <mxGeometry width="50" height="50" relative="1" as="geometry">
            <mxPoint x="400" y="320" as="sourcePoint" />
            <mxPoint x="450" y="270" as="targetPoint" />
          </mxGeometry>
        </mxCell>
      </root>
    </mxGraphModel>
  </diagram>
</mxfile>
